<?xml version="1.0" encoding="UTF-8"?>
<svg xmlns="http://www.w3.org/2000/svg" xmlns:xlink="http://www.w3.org/1999/xlink" width="45px" height="px" viewBox="0 0 45 45" version="1.1">
<g id="surface1">
<path style=" stroke:none;fill-rule:nonzero;fill:rgb(100%,100%,100%);fill-opacity:1;" d="M 25.984375 27.800781 C 24.4375 27.800781 23.074219 28.464844 22.273438 29.464844 C 21.476562 28.464844 20.109375 27.800781 18.5625 27.800781 C 16.105469 27.800781 14.105469 29.46875 14.105469 31.515625 C 14.105469 31.925781 14.441406 32.257812 14.851562 32.257812 C 15.261719 32.257812 15.59375 31.925781 15.59375 31.515625 C 15.59375 30.285156 16.878906 29.285156 18.515625 29.285156 C 20.152344 29.285156 21.441406 30.285156 21.441406 31.515625 L 21.441406 34.484375 C 21.441406 34.894531 21.773438 35.226562 22.183594 35.226562 C 22.59375 35.226562 22.925781 34.894531 22.925781 34.484375 L 22.925781 31.515625 C 22.925781 30.285156 24.304688 29.285156 25.941406 29.285156 C 27.578125 29.285156 28.933594 30.285156 28.933594 31.515625 C 28.933594 31.925781 29.277344 32.257812 29.6875 32.257812 C 30.097656 32.257812 30.4375 31.925781 30.4375 31.515625 C 30.4375 29.46875 28.441406 27.800781 25.984375 27.800781 Z M 25.984375 27.800781 "/>
<path style=" stroke:none;fill-rule:nonzero;fill:rgb(100%,100%,100%);fill-opacity:1;" d="M 15.59375 17.40625 C 13.546875 17.40625 11.878906 19.070312 11.878906 21.117188 C 11.878906 23.164062 13.546875 24.832031 15.59375 24.832031 C 17.640625 24.832031 19.304688 23.164062 19.304688 21.117188 C 19.304688 19.070312 17.640625 17.40625 15.59375 17.40625 Z M 15.59375 23.347656 C 14.363281 23.347656 13.363281 22.347656 13.363281 21.117188 C 13.363281 19.890625 14.363281 18.890625 15.59375 18.890625 C 16.820312 18.890625 17.820312 19.890625 17.820312 21.117188 C 17.820312 22.347656 16.820312 23.347656 15.59375 23.347656 Z M 15.59375 23.347656 "/>
<path style=" stroke:none;fill-rule:nonzero;fill:rgb(100%,100%,100%);fill-opacity:1;" d="M 17.019531 20.832031 C 16.980469 20.746094 16.929688 20.664062 16.863281 20.597656 C 16.582031 20.3125 16.089844 20.3125 15.808594 20.597656 C 15.675781 20.730469 15.59375 20.921875 15.59375 21.117188 C 15.59375 21.316406 15.667969 21.5 15.808594 21.644531 C 15.949219 21.785156 16.132812 21.859375 16.335938 21.859375 C 16.535156 21.859375 16.722656 21.785156 16.863281 21.644531 C 17.003906 21.5 17.078125 21.316406 17.078125 21.117188 C 17.078125 21.019531 17.054688 20.921875 17.019531 20.832031 Z M 17.019531 20.832031 "/>
<path style=" stroke:none;fill-rule:nonzero;fill:rgb(100%,100%,100%);fill-opacity:1;" d="M 28.957031 17.40625 C 26.910156 17.40625 25.246094 19.070312 25.246094 21.117188 C 25.246094 23.164062 26.910156 24.832031 28.957031 24.832031 C 31.003906 24.832031 32.671875 23.164062 32.671875 21.117188 C 32.671875 19.070312 31.003906 17.40625 28.957031 17.40625 Z M 28.957031 23.347656 C 27.730469 23.347656 26.730469 22.347656 26.730469 21.117188 C 26.730469 19.890625 27.730469 18.890625 28.957031 18.890625 C 30.1875 18.890625 31.183594 19.890625 31.183594 21.117188 C 31.183594 22.347656 30.1875 23.347656 28.957031 23.347656 Z M 28.957031 23.347656 "/>
<path style=" stroke:none;fill-rule:nonzero;fill:rgb(100%,100%,100%);fill-opacity:1;" d="M 28.898438 20.832031 C 28.863281 20.746094 28.808594 20.664062 28.742188 20.597656 C 28.707031 20.558594 28.667969 20.53125 28.625 20.5 C 28.585938 20.476562 28.542969 20.449219 28.496094 20.433594 C 28.453125 20.417969 28.40625 20.402344 28.355469 20.386719 C 28.257812 20.375 28.164062 20.375 28.066406 20.386719 C 28.023438 20.402344 27.976562 20.417969 27.933594 20.433594 C 27.886719 20.449219 27.84375 20.476562 27.800781 20.5 C 27.761719 20.53125 27.726562 20.558594 27.6875 20.597656 C 27.621094 20.664062 27.570312 20.746094 27.53125 20.832031 C 27.496094 20.921875 27.472656 21.019531 27.472656 21.117188 C 27.472656 21.316406 27.546875 21.5 27.6875 21.644531 C 27.828125 21.785156 28.015625 21.859375 28.214844 21.859375 C 28.414062 21.859375 28.601562 21.785156 28.742188 21.644531 C 28.882812 21.5 28.957031 21.316406 28.957031 21.117188 C 28.957031 21.019531 28.933594 20.921875 28.898438 20.832031 Z M 28.898438 20.832031 "/>
<path style=" stroke:none;fill-rule:nonzero;fill:rgb(100%,100%,100%);fill-opacity:1;" d="M 45 11.464844 C 45 7.371094 41.667969 4.042969 37.574219 4.042969 C 35.601562 4.042969 33.699219 4.835938 32.3125 6.230469 C 30.488281 5.058594 28.433594 4.195312 26.214844 3.71875 L 26.714844 1.21875 C 26.769531 0.949219 26.671875 0.675781 26.460938 0.5 C 26.253906 0.324219 25.964844 0.28125 25.710938 0.382812 C 23.695312 1.1875 22.648438 2.03125 22.109375 2.710938 C 20.09375 -0.113281 16.007812 -0.113281 13.945312 0.347656 C 13.613281 0.421875 13.371094 0.714844 13.363281 1.058594 C 13.359375 1.398438 13.585938 1.703125 13.917969 1.789062 C 15.035156 2.082031 16.835938 2.691406 17.335938 3.121094 C 17.421875 3.195312 17.605469 3.386719 17.847656 3.832031 C 15.925781 4.300781 14.136719 5.066406 12.519531 6.066406 C 11.148438 4.773438 9.320312 4.042969 7.425781 4.042969 C 3.332031 4.042969 0 7.371094 0 11.464844 C 0 14.3125 1.589844 16.851562 4.097656 18.105469 C 3.847656 19.324219 3.710938 20.578125 3.710938 21.863281 C 3.710938 27.019531 5.882812 31.980469 9.667969 35.484375 C 9.65625 35.65625 9.652344 35.816406 9.652344 35.96875 C 9.652344 40.882812 15.316406 44.878906 22.273438 44.878906 C 29.234375 44.878906 34.898438 40.882812 34.898438 35.96875 C 34.898438 35.816406 34.890625 35.652344 34.882812 35.484375 C 38.671875 31.976562 40.835938 27.03125 40.835938 21.863281 C 40.835938 20.644531 40.71875 19.453125 40.492188 18.292969 C 43.234375 17.125 45 14.464844 45 11.464844 Z M 1.484375 11.464844 C 1.484375 8.191406 4.148438 5.527344 7.425781 5.527344 C 8.828125 5.527344 10.1875 6.03125 11.253906 6.925781 C 8.023438 9.316406 5.621094 12.71875 4.46875 16.621094 C 2.632812 15.570312 1.484375 13.628906 1.484375 11.464844 Z M 22.273438 43.394531 C 16.132812 43.394531 11.136719 40.0625 11.136719 35.96875 C 11.136719 34.839844 11.507812 33.082031 12.15625 31.144531 C 12.238281 30.898438 12.183594 30.628906 12.019531 30.433594 C 10.015625 28.035156 8.910156 24.992188 8.910156 21.863281 C 8.910156 14.492188 14.90625 8.496094 22.273438 8.496094 C 29.644531 8.496094 35.640625 14.492188 35.640625 21.863281 C 35.640625 24.992188 34.535156 28.035156 32.53125 30.433594 C 32.367188 30.628906 32.3125 30.898438 32.394531 31.144531 C 33.042969 33.082031 33.414062 34.839844 33.414062 35.96875 C 33.414062 40.0625 28.417969 43.394531 22.273438 43.394531 Z M 34.621094 33.660156 C 34.460938 32.863281 34.226562 31.988281 33.933594 31.0625 C 35.996094 28.453125 37.125 25.203125 37.125 21.863281 C 37.125 13.671875 30.464844 7.011719 22.273438 7.011719 C 14.085938 7.011719 7.425781 13.671875 7.425781 21.863281 C 7.425781 25.203125 8.554688 28.453125 10.621094 31.0625 C 10.324219 31.988281 10.09375 32.863281 9.929688 33.65625 C 6.910156 30.496094 5.199219 26.257812 5.199219 21.863281 C 5.199219 13.679688 11.023438 6.625 19.046875 5.089844 C 19.265625 5.046875 19.449219 4.910156 19.558594 4.714844 C 19.664062 4.519531 19.679688 4.289062 19.597656 4.082031 C 19.199219 3.089844 18.765625 2.386719 18.304688 1.992188 C 18.234375 1.933594 18.15625 1.875 18.074219 1.820312 C 19.375 2.121094 20.667969 2.808594 21.328125 4.324219 C 21.449219 4.59375 21.71875 4.753906 22.011719 4.753906 C 22.015625 4.753906 22.015625 4.753906 22.019531 4.753906 L 22.273438 4.769531 C 22.6875 4.769531 23.015625 4.5 23.015625 4.089844 C 23.015625 4.082031 23.164062 3.308594 24.972656 2.347656 L 24.613281 4.15625 C 24.574219 4.351562 24.613281 4.558594 24.726562 4.722656 C 24.839844 4.886719 25.015625 5 25.214844 5.035156 C 33.40625 6.457031 39.351562 13.53125 39.351562 21.859375 C 39.351562 26.265625 37.644531 30.492188 34.621094 33.660156 Z M 40.144531 16.820312 C 39.050781 12.917969 36.71875 9.515625 33.550781 7.097656 C 34.644531 6.09375 36.085938 5.527344 37.574219 5.527344 C 40.851562 5.527344 43.515625 8.191406 43.515625 11.464844 C 43.515625 13.777344 42.203125 15.835938 40.144531 16.820312 Z M 40.144531 16.820312 "/>
<path style=" stroke:none;fill-rule:nonzero;fill:rgb(100%,100%,100%);fill-opacity:1;" d="M 31.1875 34.484375 C 30.789062 34.386719 30.386719 34.632812 30.289062 35.03125 C 29.539062 38.15625 26.167969 40.425781 22.273438 40.425781 C 18.4375 40.425781 15.074219 38.195312 14.28125 35.121094 C 14.179688 34.726562 13.777344 34.488281 13.378906 34.589844 C 12.980469 34.691406 12.742188 35.097656 12.84375 35.492188 C 13.804688 39.210938 17.769531 41.910156 22.273438 41.910156 C 26.847656 41.910156 30.828125 39.164062 31.734375 35.378906 C 31.832031 34.980469 31.585938 34.578125 31.1875 34.484375 Z M 31.1875 34.484375 "/>
<path style=" stroke:none;fill-rule:nonzero;fill:rgb(100%,100%,100%);fill-opacity:1;" d="M 26.730469 12.953125 C 24.992188 12.953125 23.390625 13.398438 22.273438 14.179688 C 21.160156 13.398438 19.546875 12.953125 17.820312 12.953125 C 14.488281 12.953125 11.878906 14.582031 11.878906 16.664062 C 11.878906 17.074219 12.210938 17.40625 12.621094 17.40625 C 13.03125 17.40625 13.363281 17.074219 13.363281 16.664062 C 13.363281 15.609375 15.195312 14.4375 17.820312 14.4375 C 19.277344 14.4375 20.660156 14.820312 21.511719 15.460938 C 21.695312 15.597656 21.925781 15.632812 22.132812 15.585938 C 22.390625 15.730469 22.71875 15.714844 22.960938 15.519531 C 23.808594 14.839844 25.21875 14.4375 26.730469 14.4375 C 29.355469 14.4375 31.183594 15.609375 31.183594 16.664062 C 31.183594 17.074219 31.515625 17.40625 31.925781 17.40625 C 32.339844 17.40625 32.671875 17.074219 32.671875 16.664062 C 32.671875 14.582031 30.0625 12.953125 26.730469 12.953125 Z M 26.730469 12.953125 "/>
</g>
</svg>
