<?xml version="1.0" encoding="UTF-8"?>
<svg xmlns="http://www.w3.org/2000/svg" xmlns:xlink="http://www.w3.org/1999/xlink" width="45px" height="px" viewBox="0 0 45 45" version="1.1">
<g id="surface1">
<path style=" stroke:none;fill-rule:nonzero;fill:rgb(100%,100%,100%);fill-opacity:1;" d="M 17.625 15 C 15.96875 15 14.625 16.34375 14.625 18 C 14.625 19.65625 15.96875 21 17.625 21 C 19.28125 21 20.625 19.65625 20.625 18 C 20.625 16.34375 19.28125 15 17.625 15 Z M 17.625 19.5 C 16.796875 19.5 16.125 18.828125 16.125 18 C 16.125 17.171875 16.796875 16.5 17.625 16.5 C 18.453125 16.5 19.125 17.171875 19.125 18 C 19.125 18.828125 18.453125 19.5 17.625 19.5 Z M 17.625 19.5 "/>
<path style=" stroke:none;fill-rule:nonzero;fill:rgb(100%,100%,100%);fill-opacity:1;" d="M 18.15625 17.472656 C 18.121094 17.433594 18.082031 17.40625 18.042969 17.375 C 18 17.351562 17.953125 17.320312 17.910156 17.308594 C 17.863281 17.292969 17.820312 17.277344 17.765625 17.261719 C 17.675781 17.246094 17.574219 17.246094 17.476562 17.261719 C 17.429688 17.277344 17.386719 17.292969 17.339844 17.308594 C 17.292969 17.320312 17.25 17.351562 17.203125 17.375 C 17.167969 17.40625 17.128906 17.433594 17.09375 17.472656 C 16.957031 17.605469 16.875 17.800781 16.875 17.996094 C 16.875 18.199219 16.949219 18.386719 17.09375 18.53125 C 17.167969 18.597656 17.25 18.65625 17.339844 18.695312 C 17.429688 18.730469 17.527344 18.746094 17.625 18.746094 C 17.722656 18.746094 17.820312 18.730469 17.910156 18.695312 C 18 18.65625 18.082031 18.597656 18.15625 18.53125 C 18.300781 18.386719 18.375 18.199219 18.375 17.996094 C 18.375 17.800781 18.292969 17.605469 18.15625 17.472656 Z M 18.15625 17.472656 "/>
<path style=" stroke:none;fill-rule:nonzero;fill:rgb(100%,100%,100%);fill-opacity:1;" d="M 26.625 15 C 24.96875 15 23.625 16.34375 23.625 18 C 23.625 19.65625 24.96875 21 26.625 21 C 28.28125 21 29.625 19.65625 29.625 18 C 29.625 16.34375 28.28125 15 26.625 15 Z M 26.625 19.5 C 25.796875 19.5 25.125 18.828125 25.125 18 C 25.125 17.171875 25.796875 16.5 26.625 16.5 C 27.453125 16.5 28.125 17.171875 28.125 18 C 28.125 18.828125 27.453125 19.5 26.625 19.5 Z M 26.625 19.5 "/>
<path style=" stroke:none;fill-rule:nonzero;fill:rgb(100%,100%,100%);fill-opacity:1;" d="M 27.316406 17.710938 C 27.277344 17.621094 27.226562 17.539062 27.15625 17.472656 C 26.871094 17.1875 26.371094 17.195312 26.09375 17.472656 C 26.023438 17.539062 25.972656 17.621094 25.933594 17.710938 C 25.898438 17.800781 25.875 17.898438 25.875 17.996094 C 25.875 18.199219 25.949219 18.386719 26.09375 18.53125 C 26.234375 18.671875 26.421875 18.746094 26.625 18.746094 C 26.722656 18.746094 26.820312 18.730469 26.910156 18.695312 C 27 18.65625 27.082031 18.597656 27.15625 18.53125 C 27.300781 18.386719 27.375 18.199219 27.375 17.996094 C 27.375 17.898438 27.351562 17.800781 27.316406 17.710938 Z M 27.316406 17.710938 "/>
<path style=" stroke:none;fill-rule:nonzero;fill:rgb(100%,100%,100%);fill-opacity:1;" d="M 25.453125 24.828125 C 25.386719 24.796875 23.78125 24 22.121094 24 C 20.464844 24 18.855469 24.796875 18.789062 24.828125 C 18.417969 25.015625 18.269531 25.464844 18.453125 25.832031 C 18.636719 26.203125 19.039062 26.355469 19.414062 26.171875 C 19.421875 26.164062 20.34375 25.734375 21.28125 25.566406 L 21.28125 28.5 C 21.28125 28.914062 21.617188 29.25 22.03125 29.25 C 22.445312 29.25 22.78125 28.914062 22.78125 28.5 L 22.78125 25.566406 C 23.90625 25.734375 24.734375 26.164062 24.742188 26.171875 C 24.851562 26.222656 24.988281 26.25 25.101562 26.25 C 25.375 26.25 25.652344 26.097656 25.785156 25.832031 C 25.96875 25.464844 25.824219 25.015625 25.453125 24.828125 Z M 25.453125 24.828125 "/>
<path style=" stroke:none;fill-rule:nonzero;fill:rgb(100%,100%,100%);fill-opacity:1;" d="M 32.222656 12.835938 C 32.101562 12.769531 29.179688 11.25 26.625 11.25 C 24.660156 11.25 22.910156 12.140625 22.125 12.609375 C 21.339844 12.140625 19.589844 11.25 17.625 11.25 C 15.070312 11.25 12.148438 12.769531 12.027344 12.835938 C 11.660156 13.027344 11.519531 13.484375 11.710938 13.847656 C 11.84375 14.105469 12.105469 14.25 12.375 14.25 C 12.492188 14.25 12.613281 14.222656 12.722656 14.164062 C 12.75 14.148438 15.441406 12.75 17.625 12.75 C 19.746094 12.75 21.671875 14.097656 21.691406 14.109375 C 21.695312 14.117188 21.703125 14.117188 21.710938 14.125 C 21.734375 14.136719 21.757812 14.148438 21.78125 14.164062 C 21.800781 14.171875 21.820312 14.183594 21.84375 14.191406 C 21.867188 14.203125 21.886719 14.207031 21.910156 14.214844 C 21.933594 14.222656 21.957031 14.230469 21.984375 14.234375 C 22.007812 14.238281 22.027344 14.242188 22.050781 14.242188 C 22.078125 14.246094 22.101562 14.25 22.125 14.25 C 22.148438 14.25 22.175781 14.246094 22.199219 14.242188 C 22.222656 14.242188 22.246094 14.238281 22.265625 14.234375 C 22.292969 14.230469 22.316406 14.222656 22.339844 14.214844 C 22.363281 14.207031 22.382812 14.203125 22.40625 14.195312 C 22.429688 14.183594 22.449219 14.171875 22.472656 14.160156 C 22.496094 14.148438 22.515625 14.136719 22.539062 14.125 C 22.546875 14.117188 22.554688 14.117188 22.558594 14.109375 C 22.578125 14.097656 24.503906 12.75 26.625 12.75 C 28.808594 12.75 31.5 14.148438 31.527344 14.164062 C 31.636719 14.222656 31.757812 14.25 31.875 14.25 C 32.144531 14.25 32.40625 14.105469 32.539062 13.847656 C 32.730469 13.484375 32.589844 13.027344 32.222656 12.835938 Z M 32.222656 12.835938 "/>
<path style=" stroke:none;fill-rule:nonzero;fill:rgb(100%,100%,100%);fill-opacity:1;" d="M 33.027344 27.441406 C 32.753906 27.148438 32.675781 26.976562 32.660156 26.882812 C 32.550781 26.167969 32.5625 25.464844 32.703125 24.792969 C 35.074219 22.726562 36.375 20.054688 36.375 17.25 C 36.375 11.046875 29.984375 6 22.125 6 C 14.269531 6 7.875 11.046875 7.875 17.25 C 7.875 20.078125 9.195312 22.765625 11.601562 24.84375 C 11.730469 25.5 11.742188 26.183594 11.632812 26.886719 C 11.585938 27.195312 11.035156 27.691406 10.546875 28.128906 C 10.257812 28.386719 9.960938 28.652344 9.734375 28.894531 C 8.5 29.996094 7.875 31.285156 7.875 32.734375 C 7.875 37.585938 14.84375 42 22.5 42 C 30.15625 42 37.125 37.585938 37.125 32.734375 C 37.125 30.558594 35.707031 28.734375 33.027344 27.441406 Z M 22.5 40.5 C 15.109375 40.5 9.375 36.324219 9.375 32.734375 C 9.375 31.734375 9.832031 30.816406 10.773438 29.972656 C 11.019531 29.71875 11.289062 29.476562 11.546875 29.246094 C 12.289062 28.582031 12.984375 27.953125 13.117188 27.117188 C 13.269531 26.136719 13.230469 25.171875 13.007812 24.253906 C 12.96875 24.097656 12.882812 23.957031 12.757812 23.855469 C 10.574219 22.046875 9.375 19.703125 9.375 17.25 C 9.375 11.875 15.09375 7.5 22.125 7.5 C 29.15625 7.5 34.875 11.875 34.875 17.25 C 34.875 19.679688 33.695312 22.007812 31.546875 23.808594 C 31.425781 23.910156 31.339844 24.046875 31.300781 24.199219 C 31.066406 25.136719 31.023438 26.117188 31.179688 27.117188 C 31.277344 27.734375 31.691406 28.226562 32.042969 28.585938 C 32.105469 28.648438 32.179688 28.703125 32.261719 28.738281 C 33.796875 29.457031 35.625 30.734375 35.625 32.734375 C 35.625 36.324219 29.890625 40.5 22.5 40.5 Z M 22.5 40.5 "/>
<path style=" stroke:none;fill-rule:nonzero;fill:rgb(100%,100%,100%);fill-opacity:1;" d="M 30.375 32.972656 L 15.375 32.972656 C 14.960938 32.972656 14.625 33.308594 14.625 33.722656 C 14.625 34.136719 14.960938 34.472656 15.375 34.472656 L 30.375 34.472656 C 30.789062 34.472656 31.125 34.136719 31.125 33.722656 C 31.125 33.308594 30.789062 32.972656 30.375 32.972656 Z M 30.375 32.972656 "/>
<path style=" stroke:none;fill-rule:nonzero;fill:rgb(100%,100%,100%);fill-opacity:1;" d="M 40.875 18.375 C 40.875 8.242188 32.632812 0 22.5 0 C 12.367188 0 4.125 8.242188 4.125 18.375 C 4.125 21.671875 5 24.886719 6.667969 27.703125 C 5.492188 29.339844 4.875 31.160156 4.875 33 C 4.875 39.617188 12.78125 45 22.5 45 C 32.21875 45 40.125 39.617188 40.125 33 C 40.125 31.160156 39.507812 29.339844 38.335938 27.703125 C 39.996094 24.886719 40.875 21.671875 40.875 18.375 Z M 38.625 33 C 38.625 38.789062 31.390625 43.5 22.5 43.5 C 13.609375 43.5 6.375 38.789062 6.375 33 C 6.375 31.320312 6.976562 29.707031 8.160156 28.214844 C 8.355469 27.964844 8.375 27.617188 8.207031 27.351562 C 6.519531 24.664062 5.625 21.5625 5.625 18.375 C 5.625 9.070312 13.195312 1.5 22.5 1.5 C 31.804688 1.5 39.375 9.070312 39.375 18.375 C 39.375 21.5625 38.480469 24.667969 36.792969 27.351562 C 36.625 27.617188 36.644531 27.964844 36.839844 28.214844 C 38.023438 29.707031 38.625 31.316406 38.625 33 Z M 38.625 33 "/>
</g>
</svg>
